<mxfile host="app.diagrams.net" modified="2024-06-25T09:07:07.713Z" agent="Mozilla/5.0 (Macintosh; Intel Mac OS X 10_15_7) AppleWebKit/537.36 (KHTML, like Gecko) Chrome/126.0.0.0 Safari/537.36" version="23.1.1" etag="lPWae_hgvXwEjswmaRA5" type="github">
  <diagram name="Page-1" id="pdb6Gz0Ij0OkZJUwplEV">
    <mxGraphModel>
      <root>
        <mxCell id="0" />
        <mxCell id="1" parent="0" />
      </root>
    </mxGraphModel>
  </diagram>
</mxfile>
